<?xml version="1.0" encoding="UTF-8"?>
<svg version="1.1" xmlns="http://www.w3.org/2000/svg" width="900px" height="900px">
<path d="M0 0 C0.89154785 0.31727051 1.7830957 0.63454102 2.70166016 0.96142578 C33.88951648 12.18100414 62.17915403 28.22203866 88 49 C89.02609375 49.81984375 90.0521875 50.6396875 91.109375 51.484375 C99.11838579 58.04459885 106.47834331 65.26865698 113.8125 72.5625 C114.30055115 73.04528412 114.78860229 73.52806824 115.29144287 74.02548218 C121.98880531 80.66689468 128.17282622 87.57881037 134 95 C134.53810303 95.67877197 135.07620605 96.35754395 135.63061523 97.05688477 C143.86399065 107.54768692 151.14545336 118.56786593 158 130 C158.44085937 130.73444336 158.88171875 131.46888672 159.3359375 132.22558594 C180.25224334 167.48223783 192.78356379 208.32106125 197 249 C197.0942627 249.89106445 197.18852539 250.78212891 197.28564453 251.70019531 C198.11866952 260.45962449 198.24314904 269.20882448 198.25 278 C198.25101212 279.17835922 198.25101212 279.17835922 198.25204468 280.38052368 C198.19112148 325.44945398 188.23295486 371.07372459 167.02099609 411.05517578 C165.98262599 413.03309455 164.98287617 415.0270975 163.98828125 417.02734375 C155.53904626 433.79899594 144.85465288 449.45196998 133 464 C132.18402344 465.01964844 131.36804688 466.03929687 130.52734375 467.08984375 C123.96782983 475.10931218 116.73662587 482.47303126 109.4375 489.8125 C108.95471588 490.30055115 108.47193176 490.78860229 107.97451782 491.29144287 C101.33310532 497.98880531 94.42118963 504.17282622 87 510 C86.32122803 510.53810303 85.64245605 511.07620605 84.94311523 511.63061523 C33.18355966 552.25247106 -30.75771398 574.28798923 -96.5 574.1875 C-97.69302734 574.18609512 -97.69302734 574.18609512 -98.91015625 574.18466187 C-111.3741349 574.15293299 -123.65100686 573.83089493 -136 572 C-137.55098389 571.77401123 -137.55098389 571.77401123 -139.13330078 571.54345703 C-166.26490996 567.45190189 -191.84169219 559.89800617 -217 549 C-217.78375 548.66532715 -218.5675 548.3306543 -219.375 547.98583984 C-238.53366373 539.7279426 -256.32766261 528.47457187 -273 516 C-273.61810547 515.53883789 -274.23621094 515.07767578 -274.87304688 514.60253906 C-294.33830834 499.96723842 -313.34641914 482.45578432 -328 463 C-328.92362263 461.81573773 -329.84817138 460.63219741 -330.7734375 459.44921875 C-338.55418932 449.40018854 -345.46674374 438.89628029 -352 428 C-352.66128906 426.89833496 -352.66128906 426.89833496 -353.3359375 425.77441406 C-374.25224334 390.51776217 -386.78356379 349.67893875 -391 309 C-391.14139404 307.66340332 -391.14139404 307.66340332 -391.28564453 306.29980469 C-392.11866954 297.54037539 -392.24314822 288.79117576 -392.25 280 C-392.25067474 279.21475952 -392.25134949 278.42951904 -392.25204468 277.6204834 C-392.16182803 210.91412615 -368.79114408 145.9340024 -327 94 C-326.18015625 92.97390625 -325.3603125 91.9478125 -324.515625 90.890625 C-317.95540115 82.88161421 -310.73134302 75.52165669 -303.4375 68.1875 C-302.71332382 67.45542328 -302.71332382 67.45542328 -301.97451782 66.70855713 C-295.33310532 60.01119469 -288.42118963 53.82717378 -281 48 C-280.32122803 47.46189697 -279.64245605 46.92379395 -278.94311523 46.36938477 C-268.45302055 38.13656458 -257.44420043 30.83399922 -246 24 C-245.2167334 23.53207031 -244.4334668 23.06414062 -243.62646484 22.58203125 C-171.28850845 -20.07689988 -78.93091577 -28.2286113 0 0 Z " fill="#0066C8" transform="translate(587,211)"/>
<path d="M0 0 C1.07636719 0.38542969 2.15273438 0.77085937 3.26171875 1.16796875 C17.60061858 6.72721598 33.88766197 16.50401945 42 30 C42.56976562 30.90363281 43.13953125 31.80726563 43.7265625 32.73828125 C52.23536457 46.6963374 59.13308022 63.19344187 59.12025452 79.75141907 C59.12153615 80.75013048 59.12153615 80.75013048 59.12284368 81.76901788 C59.12448625 83.99227982 59.11899721 86.21546574 59.11352539 88.4387207 C59.11324323 90.03549701 59.11340182 91.63227345 59.1139679 93.22904968 C59.11425474 97.55920539 59.10837623 101.88933339 59.10139394 106.21948266 C59.09514162 110.74651464 59.09455511 115.27354726 59.09336853 119.80058289 C59.09026076 128.37108658 59.08205483 136.94157752 59.07201904 145.5120756 C59.05875044 157.09486509 59.05335352 168.67765806 59.04751682 180.26045322 C59.03811458 198.50697837 59.01819195 216.7534766 59 235 C35.57 235 12.14 235 -12 235 C-12.03738281 225.16574219 -12.07476563 215.33148437 -12.11328125 205.19921875 C-12.14356555 198.96027249 -12.17459562 192.72134463 -12.20898438 186.48242188 C-12.26340103 176.58489675 -12.31481701 166.68742266 -12.34643555 156.78979492 C-12.36948077 149.58028975 -12.40295106 142.37091938 -12.44870156 135.16152126 C-12.47254626 131.34768348 -12.49133213 127.53397847 -12.49761391 123.72006798 C-12.50370472 120.12241806 -12.52384657 116.52510746 -12.55427551 112.92758369 C-12.56711497 110.99385667 -12.56549679 109.06005011 -12.5632782 107.12628174 C-12.69890693 94.40218256 -15.40661898 82.83665598 -24.1875 73.25 C-28.26995497 69.41604229 -32.90690805 67.21756635 -38 65 C-38.61230469 64.67902344 -39.22460938 64.35804688 -39.85546875 64.02734375 C-49.13040236 59.62533332 -63.48173875 61.0412443 -73 64 C-86.35779095 69.60697398 -94.28217675 77.2499631 -100.17578125 90.50390625 C-102.91811467 98.80888754 -103.30336136 106.5470134 -103.31884766 115.23071289 C-103.32889328 116.52925201 -103.3389389 117.82779114 -103.34928894 119.16567993 C-103.37641473 122.70014592 -103.39168615 126.23457245 -103.40471697 129.76911473 C-103.42042441 133.47270396 -103.44719006 137.1762135 -103.4727478 140.87974548 C-103.51940153 147.88115233 -103.5562102 154.88257439 -103.58942068 161.88405651 C-103.63491196 171.35346672 -103.69573552 180.82277791 -103.75566864 190.29210567 C-103.84958828 205.1946873 -103.92312981 220.09729809 -104 235 C-127.43 235 -150.86 235 -175 235 C-175 157.45 -175 79.9 -175 0 C-152.89 0 -130.78 0 -108 0 C-107.67 10.56 -107.34 21.12 -107 32 C-103.535 28.04 -103.535 28.04 -100 24 C-76.01497796 -2.5097612 -33.51614875 -12.4419077 0 0 Z " fill="#FDFDFE" transform="translate(607,432)"/>
<path d="M0 0 C24.09 0 48.18 0 73 0 C73 77.55 73 155.1 73 235 C48.91 235 24.82 235 0 235 C0 157.45 0 79.9 0 0 Z " fill="#FCFDFE" transform="translate(319,432)"/>
<path d="M0 0 C8.27745212 6.13651714 14.51829571 14.21617353 17.22265625 24.23828125 C17.63918237 27.37663103 17.70030641 30.45034108 17.66015625 33.61328125 C17.65258301 34.45036621 17.64500977 35.28745117 17.63720703 36.14990234 C17.46692622 42.53978301 16.50752163 47.67140659 13.22265625 53.23828125 C12.79855469 54.00140625 12.37445313 54.76453125 11.9375 55.55078125 C5.30613987 66.48606035 -3.67896167 72.05040096 -15.6953125 75.84375 C-27.23629193 78.03068982 -37.00867169 75.80729082 -47.015625 69.921875 C-56.50884437 63.45173908 -62.68067586 53.90638472 -65.359375 42.83203125 C-67.4109255 30.10091412 -64.98468354 19.47356972 -57.86328125 8.8515625 C-43.55771429 -9.07058037 -19.0479927 -12.08248201 0 0 Z " fill="#FCFDFE" transform="translate(379.77734375,320.76171875)"/>
<path d="M0 0 C0.66 0.33 1.32 0.66 2 1 C-1.63 4.63 -5.26 8.26 -9 12 C-9 8.00102358 -7.64683965 6.93298448 -5 4 C-3.36643049 2.62631655 -1.7074998 1.28062485 0 0 Z " fill="#DAE8F7" transform="translate(331,321)"/>
</svg>
