<?xml version="1.0" encoding="UTF-8"?>
<svg version="1.1" xmlns="http://www.w3.org/2000/svg" width="1024" height="1024">
<path d="M0 0 C1.53060448 -0.00269564 3.06120762 -0.00626475 4.59180826 -0.01062447 C8.79975514 -0.02006944 13.0076153 -0.01708604 17.2155664 -0.01206893 C21.792898 -0.0088004 26.37021113 -0.01708643 30.94753683 -0.02388728 C38.97074185 -0.03419425 46.99392273 -0.03702986 55.01713371 -0.03497505 C66.94816071 -0.03192688 78.87916097 -0.04024499 90.81018277 -0.0507243 C113.35873011 -0.07007566 135.90726836 -0.07569295 158.45582302 -0.07683842 C175.86824071 -0.07775719 193.28065483 -0.08187224 210.69307137 -0.08823967 C215.70362866 -0.09003474 220.71418595 -0.09181436 225.72474325 -0.09358943 C226.97035388 -0.09403152 228.21596452 -0.09447362 229.49932093 -0.09492911 C264.54085249 -0.10723921 299.58238281 -0.11513007 334.62391663 -0.11424255 C335.9586688 -0.114211 337.29342097 -0.11417952 338.62817315 -0.11414814 C344.65436035 -0.11400137 350.68054756 -0.11382503 356.70673477 -0.11364037 C359.39391924 -0.11355812 362.08110372 -0.11347783 364.76828819 -0.11339774 C366.11327211 -0.11335695 367.45825603 -0.11331491 368.80323995 -0.11327162 C411.3279492 -0.1119113 453.85262514 -0.12654329 496.37732506 -0.15435219 C543.38881278 -0.18507853 590.4002844 -0.20228487 637.41178358 -0.20042574 C642.424227 -0.20027648 647.43667042 -0.20017907 652.44911385 -0.20011711 C654.30042387 -0.20008215 654.30042387 -0.20008215 656.18913409 -0.20004648 C676.05529339 -0.19998492 695.92142457 -0.21275956 715.7875755 -0.22998164 C735.75220678 -0.24693117 755.71679688 -0.24891728 775.68143137 -0.235763 C787.54270121 -0.2283693 799.40384606 -0.23204442 811.26510267 -0.25164768 C819.19031947 -0.26363929 827.11544564 -0.26106567 835.04065826 -0.24670668 C839.55478776 -0.23893683 844.0686752 -0.23741168 848.58278771 -0.25362138 C852.69634178 -0.26826312 856.80945401 -0.2642089 860.92298897 -0.24577365 C862.39518541 -0.24235486 863.86741716 -0.2455092 865.33957746 -0.25637607 C885.33124439 -0.39396243 903.01318198 5.72019289 917.9725399 19.25726891 C918.74211021 19.93402672 919.51168053 20.61078453 920.30457115 21.30805016 C932.20984419 32.40206098 939.30522584 47.13418469 941.08962226 63.2305007 C941.21518098 64.33963926 941.21518098 64.33963926 941.34327625 65.47118467 C942.13399594 72.95645573 942.25124587 80.41307055 942.22422218 87.93556023 C942.22631525 89.43906915 942.22928275 90.94257706 942.23303092 92.44608277 C942.24074749 96.54152057 942.23619722 100.63686281 942.22947501 104.73229887 C942.22436825 109.20159694 942.23093457 113.67088118 942.23596168 118.14017725 C942.24316351 125.96136242 942.2429792 133.78251994 942.23786736 141.60370636 C942.23028646 153.23430524 942.23417814 164.8648809 942.24028397 176.49547963 C942.25080485 197.27057255 942.24990689 218.04565315 942.24412614 238.82074724 C942.2390922 257.00153919 942.23778295 275.18232662 942.24017143 293.36311913 C942.24040059 295.17308669 942.24040059 295.17308669 942.24063437 297.01961926 C942.24125706 301.91796082 942.24189387 306.81630238 942.2425539 311.71464394 C942.24866993 357.65142263 942.24312809 403.58819348 942.23236011 449.52497096 C942.22286912 490.32425025 942.22371838 531.12351706 942.23328209 571.92279625 C942.24399467 617.77632956 942.24823616 663.62985594 942.24205756 709.48339033 C942.24141614 714.37273311 942.24079046 719.2620759 942.24017143 724.15141869 C942.24001328 725.35527236 942.23985512 726.55912603 942.23969218 727.79946012 C942.2374186 745.96745089 942.24007523 764.13543666 942.24513054 782.30342674 C942.25085086 802.96418902 942.24941553 823.62493707 942.23856905 844.28569758 C942.23270091 855.84438956 942.23230676 867.40305073 942.2398614 878.9617419 C942.24435342 886.68753951 942.24154191 894.41331246 942.23285186 902.13910641 C942.22810545 906.53750261 942.22644434 910.93583769 942.23366383 915.33423191 C942.24017964 919.3449609 942.23730104 923.35557521 942.22730251 927.36629603 C942.22530794 928.7990485 942.22656741 930.23181072 942.23171438 931.66455533 C942.25704182 939.26120798 941.94370897 946.73935615 941.08962226 954.28403711 C941.01317106 954.97367235 940.93671986 955.66330758 940.85795196 956.37384085 C938.59242409 974.62472266 928.10487863 991.29191215 913.9022274 1002.72992516 C897.80490028 1014.3471528 882.1676805 1018.73638367 862.46850586 1018.63758564 C860.93494317 1018.64102549 859.40138297 1018.64577654 857.86782789 1018.65170661 C853.67027996 1018.66416183 849.47293649 1018.65809092 845.27538784 1018.64887293 C840.70241347 1018.64214457 836.1294735 1018.65283854 831.55650651 1018.66126877 C823.54715345 1018.67362859 815.53785898 1018.67485105 807.5284996 1018.66871834 C795.61814243 1018.65962305 783.70783938 1018.66766271 771.79748635 1018.67900958 C750.52430521 1018.69867613 729.25114843 1018.70102393 707.97796036 1018.69581438 C689.36019742 1018.69125735 670.74244411 1018.6918562 652.12468147 1018.69765472 C649.62740332 1018.69841159 647.13012516 1018.69916757 644.632847 1018.69992267 C640.8696856 1018.70106786 637.10652421 1018.70221774 633.34336282 1018.70338191 C598.35683749 1018.71408699 563.37031537 1018.71881205 528.38378906 1018.71091175 C527.06493133 1018.71061458 525.74607361 1018.7103174 524.38725049 1018.71001123 C517.70277216 1018.70848957 511.01829384 1018.70689206 504.33381553 1018.70526933 C503.6701716 1018.7051083 503.00652768 1018.70494728 502.32277333 1018.70478138 C496.93771525 1018.70347382 496.93771525 1018.70347382 494.27130752 1018.70282019 C451.82111671 1018.6924286 409.37096735 1018.70019661 366.92078209 1018.72382164 C319.98104493 1018.74990229 273.04132725 1018.76274308 226.10158193 1018.75563389 C221.09706458 1018.75491783 216.09254722 1018.75424344 211.08802986 1018.75359344 C209.85579233 1018.75342364 208.6235548 1018.75325383 207.35397674 1018.75307887 C188.74967581 1018.7507755 170.14539735 1018.75875469 151.54110146 1018.77188492 C130.38463818 1018.78678976 109.22822757 1018.78764785 88.07176544 1018.76981401 C76.23269538 1018.76024519 64.39374811 1018.76169782 52.55468623 1018.7790487 C44.64440469 1018.78953195 36.73421674 1018.78544651 28.82394442 1018.76956866 C24.31841932 1018.76093092 19.81313495 1018.75852681 15.30762215 1018.77383798 C11.20191962 1018.78765858 7.09666297 1018.7827921 2.99098612 1018.76355279 C1.5216439 1018.75984319 0.05226503 1018.76270085 -1.41704389 1018.77326587 C-23.28347358 1018.919554 -41.61411451 1011.13047977 -57.3555851 996.02289391 C-68.47453401 984.45011035 -75.27480723 970.27605219 -77.11329246 954.35044336 C-77.19925413 953.60622395 -77.28521581 952.86200454 -77.37378238 952.09523303 C-78.1837311 944.59131347 -78.3062401 937.12207785 -78.27914238 929.57897758 C-78.28123545 928.07546866 -78.28420294 926.57196075 -78.28795111 925.06845504 C-78.29566768 920.97301724 -78.29111742 916.877675 -78.28439521 912.78223894 C-78.27928845 908.31294087 -78.28585476 903.84365663 -78.29088187 899.37436056 C-78.2980837 891.55317539 -78.2978994 883.73201787 -78.29278755 875.91083145 C-78.28520665 864.28023257 -78.28909834 852.64965691 -78.29520417 841.01905818 C-78.30572504 820.24396526 -78.30482709 799.46888466 -78.29904634 778.69379057 C-78.2940124 760.51299862 -78.29270315 742.33221119 -78.29509163 724.15141869 C-78.2952444 722.94477364 -78.29539717 721.7381286 -78.29555457 720.49491855 C-78.29617726 715.59657699 -78.29681406 710.69823543 -78.2974741 705.79989387 C-78.30359013 659.86311518 -78.29804828 613.92634433 -78.2872803 567.98956686 C-78.27778931 527.19028756 -78.27863858 486.39102075 -78.28820229 445.59174156 C-78.29891486 399.73820825 -78.30315636 353.88468187 -78.29697776 308.03114748 C-78.29633634 303.1418047 -78.29571066 298.25246191 -78.29509163 293.36311913 C-78.29493347 292.15926545 -78.29477532 290.95541178 -78.29461237 289.71507769 C-78.2923388 271.54708692 -78.29499543 253.37910115 -78.30005074 235.21111107 C-78.30577105 214.55034879 -78.30433572 193.88960074 -78.29348925 173.22884023 C-78.2876211 161.67014825 -78.28722695 150.11148708 -78.2947816 138.55279591 C-78.29927362 130.82699831 -78.29646211 123.10122535 -78.28777206 115.3754314 C-78.28302565 110.9770352 -78.28136454 106.57870012 -78.28858402 102.1803059 C-78.29509983 98.16957691 -78.29222124 94.1589626 -78.2822227 90.14824178 C-78.28022814 88.71548931 -78.28148761 87.28272709 -78.28663458 85.84998248 C-78.37005395 60.82936746 -74.31299532 39.54532905 -56.3399601 21.00726891 C-40.66198426 5.56295879 -21.47649441 -0.06535402 0 0 Z " fill="#0274B3" transform="translate(80.0274600982666,2.7427310943603516)"/>
<path d="M0 0 C0.91652344 0.01401855 1.83304688 0.02803711 2.77734375 0.04248047 C21.21153011 0.41940207 39.55776843 4.14417776 57 10 C57.97428955 10.31227539 57.97428955 10.31227539 58.96826172 10.63085938 C89.97405912 20.64515419 117.38392163 43.0870646 133.25 71.5625 C134.17527099 73.37062268 135.09165711 75.18331422 136 77 C136.55042969 78.01835937 137.10085938 79.03671875 137.66796875 80.0859375 C149.50929492 102.51387979 155.56796612 128.00108884 159 153 C159.27263672 154.9490625 159.27263672 154.9490625 159.55078125 156.9375 C162.55361912 179.7069097 163.30187682 202.55622088 163.23213124 225.4966687 C163.22330342 229.1588041 163.2264302 232.82093492 163.22793579 236.483078 C163.22897273 242.79323236 163.2228229 249.10334462 163.21146011 255.41348839 C163.19504336 264.53632566 163.1899808 273.65914305 163.18748413 282.78199349 C163.18313204 297.59157158 163.16989131 312.40112735 163.15087891 327.21069336 C163.13245512 341.5769032 163.11835364 355.94310689 163.10986328 370.30932617 C163.10932729 371.20734115 163.10879129 372.10535613 163.10823905 373.03058368 C163.10407898 380.05608119 163.10016557 387.08157883 163.09632993 394.10707653 C163.07754194 428.40473819 163.03728682 462.70234381 163 497 C113.17 497 63.34 497 12 497 C11.95101563 478.23253906 11.90203125 459.46507812 11.8515625 440.12890625 C11.81616081 428.2115842 11.7802826 416.29426642 11.7421875 404.37695312 C11.7221839 398.11140996 11.70230017 391.84586644 11.68261719 385.58032227 C11.68014575 384.79519715 11.67767431 384.01007203 11.67512798 383.20115525 C11.63556733 370.57817893 11.6027555 357.95519384 11.57250018 345.33219219 C11.5412243 332.34707292 11.50254807 319.36199038 11.45720994 306.37691253 C11.4295322 298.38484953 11.40741114 290.39281292 11.39273749 282.40071528 C11.38080232 276.23966187 11.35849826 270.0786828 11.33261681 263.91767311 C11.32365214 261.41420705 11.31787731 258.91072687 11.31578636 256.40724564 C11.29492314 235.1953894 11.07451169 213.70305475 6 193 C5.73574219 191.78699219 5.47148438 190.57398438 5.19921875 189.32421875 C0.6653893 170.09039602 -9.01335994 152.72281654 -26 142 C-46.42671778 130.44565666 -72.99100742 129.755855 -95.25390625 135.8671875 C-96.49011719 136.24101562 -97.72632813 136.61484375 -99 137 C-100.04027344 137.31195313 -101.08054687 137.62390625 -102.15234375 137.9453125 C-122.01366057 144.57503677 -134.25502273 157.25508801 -143.74609375 175.32421875 C-149.42944828 187.07359756 -152.47028665 198.97778583 -154.1875 211.875 C-154.35185547 213.04546875 -154.51621094 214.2159375 -154.68554688 215.421875 C-154.98936128 217.59162643 -155.28902547 219.76196698 -155.58276367 221.93310547 C-155.85904128 223.96388328 -156.16980964 225.99029067 -156.51618862 228.01029301 C-157.21886032 232.96073902 -157.15338812 237.910928 -157.15821838 242.90220642 C-157.16315636 243.99032877 -157.16809434 245.07845112 -157.17318195 246.19954687 C-157.18852106 249.83997962 -157.19690788 253.48039477 -157.20532227 257.12084961 C-157.2149036 259.73268793 -157.22491384 262.3445247 -157.23532104 264.95635986 C-157.25703917 270.57657582 -157.27520061 276.19679416 -157.29092598 281.81702995 C-157.31366721 289.94288262 -157.34180406 298.06870962 -157.37124526 306.19454045 C-157.41886912 319.37911261 -157.46214736 332.5636953 -157.50268555 345.74829102 C-157.542067 358.55363789 -157.58351072 371.35897537 -157.62768555 384.16430664 C-157.63043505 384.96206896 -157.63318456 385.75983128 -157.63601738 386.58176821 C-157.65753735 392.82106956 -157.67917667 399.06037049 -157.70085371 405.29967129 C-157.80702042 435.86642858 -157.9027787 466.43321043 -158 497 C-207.5 497 -257 497 -308 497 C-308 336.95 -308 176.9 -308 12 C-260.48 12 -212.96 12 -164 12 C-164 33.78 -164 55.56 -164 78 C-163.01 78 -162.02 78 -161 78 C-160.75507812 77.12859375 -160.51015625 76.2571875 -160.2578125 75.359375 C-158.90358629 71.74249755 -157.23693392 69.29500191 -154.875 66.25 C-153.66650391 64.68765625 -153.66650391 64.68765625 -152.43359375 63.09375 C-151.63050781 62.0728125 -150.82742188 61.051875 -150 60 C-149.31035156 59.1028125 -148.62070312 58.205625 -147.91015625 57.28125 C-123.42242367 25.8593674 -84.46577198 6.4010391 -45.44262695 0.94775391 C-30.42551675 -0.83470233 -15.09483933 -0.25739052 0 0 Z " fill="#FEFEFE" transform="translate(708,373)"/>
<path d="M0 0 C49.5 0 99 0 150 0 C150 160.05 150 320.1 150 485 C100.5 485 51 485 0 485 C0 324.95 0 164.9 0 0 Z " fill="#FFFFFF" transform="translate(154,385)"/>
<path d="M0 0 C0.93199219 0.45375 1.86398437 0.9075 2.82421875 1.375 C23.54382508 12.00933072 39.65016562 30.92623998 47 53 C52.10821305 70.6748056 52.54267109 91.71787867 46 109 C45.649375 109.94230469 45.29875 110.88460937 44.9375 111.85546875 C35.47102024 134.63418568 17.56114122 152.23602339 -5 162 C-25.52877375 169.72265392 -50.97736947 170.07246125 -71.14453125 161.234375 C-79.42902651 157.39203827 -86.85554533 152.70589273 -94 147 C-94.60714844 146.5565625 -95.21429688 146.113125 -95.83984375 145.65625 C-111.22051331 133.78599208 -121.32637724 113.74950027 -124.25 94.9375 C-127.0553666 69.96973724 -123.40144734 46.79070995 -107.7578125 26.38671875 C-99.5405051 16.10480552 -90.38950542 8.54290737 -79 2 C-78.13632813 1.49726563 -77.27265625 0.99453125 -76.3828125 0.4765625 C-53.81831054 -11.73046315 -22.80862912 -11.48589049 0 0 Z " fill="#FEFEFE" transform="translate(267,151)"/>
</svg>
