<?xml version="1.0" standalone="no"?>
<!DOCTYPE svg PUBLIC "-//W3C//DTD SVG 20010904//EN"
 "http://www.w3.org/TR/2001/REC-SVG-20010904/DTD/svg10.dtd">
<svg version="1.0" xmlns="http://www.w3.org/2000/svg"
 width="900px" height="900px" viewBox="0 0 640.000000 640.000000"
 preserveAspectRatio="xMidYMid meet">

<g transform="translate(0.000000,640.000000) scale(0.100000,-0.100000)"
fill="#000000" stroke="none">
<path d="M391 6369 c-173 -34 -329 -189 -361 -358 -14 -74 -14 -5538 0 -5612
33 -180 177 -326 359 -365 100 -21 5523 -21 5624 1 178 37 323 185 357 364 14
74 14 5537 0 5611 -24 125 -115 248 -230 309 -121 65 75 61 -2950 60 -1515 -1
-2775 -5 -2799 -10z m1219 -888 c249 -84 403 -334 370 -598 -27 -215 -201
-408 -411 -458 -82 -19 -199 -19 -274 0 -262 69 -447 345 -405 608 36 230 195
406 417 462 80 20 220 14 303 -14z m2963 -1427 c132 -19 299 -75 394 -134 267
-165 411 -445 464 -910 7 -60 13 -458 16 -1072 l4 -978 -480 0 -481 0 0 864
c0 554 -4 893 -11 943 -44 325 -196 474 -483 473 -209 -1 -372 -88 -458 -246
-39 -72 -76 -208 -88 -325 -6 -61 -10 -420 -10 -905 l0 -804 -475 0 -475 0 2
1517 3 1518 452 3 453 2 2 -212 3 -213 47 70 c25 39 79 102 120 141 247 240
579 329 1001 268z m-2665 -1577 l2 -1517 -475 0 -475 0 0 1520 0 1520 473 -2
472 -3 3 -1518z"/>
</g>
</svg>
